<?xml version="1.0" encoding="UTF-8" standalone="no"?>
<!-- Created with Inkscape (http://www.inkscape.org/) -->

<svg
   width="4.151433in"
   height="1.6874733in"
   viewBox="0 0 105.4464 42.861822"
   version="1.1"
   id="svg5"
   inkscape:version="1.3.2 (091e20ef0f, 2023-11-25, custom)"
   sodipodi:docname="logo_norender.svg"
   xmlns:inkscape="http://www.inkscape.org/namespaces/inkscape"
   xmlns:sodipodi="http://sodipodi.sourceforge.net/DTD/sodipodi-0.dtd"
   xmlns="http://www.w3.org/2000/svg"
   xmlns:svg="http://www.w3.org/2000/svg">
  <sodipodi:namedview
     id="namedview7"
     pagecolor="#ffffff"
     bordercolor="#111111"
     borderopacity="1"
     inkscape:pageshadow="0"
     inkscape:pageopacity="0"
     inkscape:pagecheckerboard="false"
     inkscape:document-units="mm"
     showgrid="false"
     showguides="true"
     inkscape:guide-bbox="true"
     inkscape:snap-bbox="true"
     inkscape:bbox-paths="true"
     inkscape:bbox-nodes="true"
     inkscape:snap-bbox-midpoints="true"
     inkscape:snap-bbox-edge-midpoints="true"
     inkscape:object-paths="true"
     inkscape:snap-intersection-paths="true"
     inkscape:snap-smooth-nodes="true"
     inkscape:snap-midpoints="true"
     inkscape:snap-object-midpoints="true"
     inkscape:snap-center="true"
     inkscape:snap-text-baseline="true"
     inkscape:zoom="1.7473881"
     inkscape:cx="145.93209"
     inkscape:cy="108.73372"
     inkscape:window-width="1920"
     inkscape:window-height="1008"
     inkscape:window-x="0"
     inkscape:window-y="0"
     inkscape:window-maximized="1"
     inkscape:current-layer="g557"
     inkscape:snap-global="false"
     inkscape:snap-page="true"
     inkscape:showpageshadow="2"
     inkscape:deskcolor="#ffffff">
    <inkscape:grid
       type="xygrid"
       id="grid16141"
       originx="-556.93637"
       originy="-208.89667"
       spacingy="1"
       spacingx="1"
       units="mm"
       visible="false" />
  </sodipodi:namedview>
  <defs
     id="defs2" />
  <g
     inkscape:label="Layer 1"
     inkscape:groupmode="layer"
     id="layer1"
     transform="translate(-556.93635,-208.89668)">
    <g
       id="g5429"
       transform="translate(-262.10079,234.73537)" />
    <g
       id="g557"
       transform="matrix(1.7709727,0,0,1.7709727,318.59661,-94.676699)">
      <g
         id="g549"
         style="fill:#4ecdc4;fill-opacity:1"
         transform="matrix(0.79402596,0,0,0.79402596,57.525209,13.490998)" />
      <g
         id="g1161"
         transform="matrix(0.26423724,0,0,0.26423724,136.66163,57.216284)"
         style="fill:#1a535c;fill-opacity:1">
        <path
           style="color:#000000;-inkscape-font-specification:'Geoma Regular Demo';fill:#1a535c;fill-opacity:1;stroke:none;stroke-width:1.81239;stroke-miterlimit:4;stroke-dasharray:none"
           d="m 35.31396,472.68577 v 12.92608 c 0,0.96024 0.34244,1.78282 1.02732,2.46771 0.67784,0.67784 1.49687,1.01674 2.45712,1.01674 0.96732,0 1.78989,-0.3389 2.46771,-1.01674 0.68489,-0.68489 1.02734,-1.50747 1.02734,-2.46771 0,-0.96027 -0.34245,-1.77931 -1.02734,-2.45714 -0.67782,-0.68486 -1.50039,-1.02731 -2.46771,-1.02731 -0.50836,0 -0.99556,0.10608 -1.46156,0.31772 -0.26831,0.12711 -0.54014,0.14123 -0.8155,0.0424 -0.28244,-0.10608 -0.48367,-0.29299 -0.6037,-0.56133 -0.12708,-0.26835 -0.1412,-0.54015 -0.0424,-0.81552 0.10584,-0.27526 0.29302,-0.47659 0.56132,-0.60367 0.74844,-0.34599 1.5357,-0.51896 2.36181,-0.51896 1.55335,0 2.88076,0.54718 3.98222,1.64159 1.10147,1.10147 1.65221,2.42889 1.65221,3.98225 0,1.55333 -0.55074,2.88075 -1.65221,3.98222 -1.10146,1.10147 -2.42887,1.65219 -3.98222,1.65219 -1.54629,0 -2.87017,-0.55072 -3.97165,-1.65219 -1.10146,-1.10147 -1.65219,-2.42889 -1.65219,-3.98222 V 472.6858 Z"
           id="path1145"
           inkscape:export-filename="/home/yeison/Development/DunderLab/assets/logo/path20353.png"
           inkscape:export-xdpi="157.256"
           inkscape:export-ydpi="157.256"
           sodipodi:nodetypes="cssssscscccccscssssscc" />
        <path
           style="color:#000000;-inkscape-font-specification:'Geoma Regular Demo';fill:#1a535c;fill-opacity:1;stroke:none;stroke-width:1.81239;stroke-miterlimit:4;stroke-dasharray:none"
           d="m 10.63826,473.69442 v 15.95034 c 0,0.96024 0.34245,1.78283 1.02734,2.46772 0.67782,0.67783 1.49687,1.01673 2.45712,1.01673 0.96732,0 1.78989,-0.3389 2.46772,-1.01673 0.68489,-0.68489 1.02734,-1.50748 1.02734,-2.46772 0,-0.96024 -0.34245,-1.7793 -1.02734,-2.45713 -0.67783,-0.68487 -1.5004,-1.02731 -2.46772,-1.02731 -0.50837,0 -0.99556,0.10607 -1.46157,0.31771 -0.26831,0.12711 -0.54014,0.14124 -0.81551,0.0424 -0.28244,-0.10607 -0.48365,-0.29298 -0.60369,-0.56133 -0.12708,-0.26834 -0.1412,-0.54014 -0.0424,-0.81549 0.1059,-0.27525 0.29302,-0.47661 0.56133,-0.6037 0.74843,-0.34599 1.5357,-0.51895 2.3618,-0.51895 1.55336,0 2.88078,0.54717 3.98225,1.64158 1.10147,1.10148 1.6522,2.42889 1.6522,3.98225 0,1.55334 -0.55073,2.88078 -1.6522,3.98223 -1.10147,1.10147 -2.42889,1.65219 -3.98225,1.65219 -1.54629,0 -2.87017,-0.55072 -3.97164,-1.65219 -1.10147,-1.10145 -1.6522,-2.42889 -1.6522,-3.98223 v -15.95037 z"
           id="path1147"
           inkscape:export-filename="/home/yeison/Development/DunderLab/assets/logo/path20353.png"
           inkscape:export-xdpi="157.256"
           inkscape:export-ydpi="157.256"
           sodipodi:nodetypes="cssssscscccccscssssscc" />
        <path
           style="color:#000000;-inkscape-font-specification:'Geoma Regular Demo';fill:#1a535c;fill-opacity:1;stroke:none;stroke-width:1.81239;stroke-miterlimit:4;stroke-dasharray:none"
           d="m 20.98698,473.00154 v 29.86298 c 0,0.96026 -0.34244,1.78285 -1.02733,2.46771 -0.67782,0.67783 -1.49686,1.01673 -2.45712,1.01673 -0.96731,0 -1.78987,-0.3389 -2.46771,-1.01673 -0.68489,-0.68486 -1.02733,-1.50745 -1.02733,-2.46771 0,-0.96024 0.34244,-1.77928 1.02733,-2.45711 0.67784,-0.6849 1.5004,-1.02734 2.46771,-1.02734 0.50838,0 0.99556,0.10607 1.46156,0.31774 0.26832,0.12711 0.54014,0.14124 0.81552,0.0424 0.28243,-0.10607 0.48365,-0.29298 0.60368,-0.56133 0.12711,-0.26834 0.14121,-0.54014 0.0424,-0.81552 -0.10583,-0.27525 -0.29301,-0.47658 -0.56132,-0.60369 -0.74843,-0.34597 -1.5357,-0.51893 -2.3618,-0.51893 -1.55336,0 -2.88077,0.54717 -3.98224,1.64158 -1.10147,1.10148 -1.6522,2.42889 -1.6522,3.98226 0,1.55333 0.55073,2.88074 1.6522,3.98222 1.10147,1.10144 2.42888,1.65219 3.98224,1.65219 1.54628,0 2.87017,-0.55075 3.97164,-1.65219 1.10146,-1.10148 1.6522,-2.42889 1.6522,-3.98222 v -29.86301 z"
           id="path1149"
           inkscape:export-filename="/home/yeison/Development/DunderLab/assets/logo/path20353.png"
           inkscape:export-xdpi="157.256"
           inkscape:export-ydpi="157.256"
           sodipodi:nodetypes="cssssscscccccscssssscc" />
        <path
           style="color:#000000;-inkscape-font-specification:'Geoma Regular Demo';fill:#1a535c;fill-opacity:1;stroke:none;stroke-width:1.81239;stroke-miterlimit:4;stroke-dasharray:none"
           d="m 30.94855,474.10887 v 36.02423 c 0,0.96027 0.34245,1.78285 1.02733,2.46772 0.67783,0.67783 1.49686,1.01673 2.45713,1.01673 0.9673,0 1.78988,-0.3389 2.4677,-1.01673 0.68489,-0.68487 1.02733,-1.50745 1.02733,-2.46772 0,-0.96024 -0.34244,-1.77927 -1.02733,-2.4571 -0.67782,-0.6849 -1.5004,-1.02735 -2.4677,-1.02735 -0.50838,0 -0.99556,0.10608 -1.46157,0.31775 -0.26832,0.12711 -0.54014,0.14123 -0.81551,0.0424 -0.28244,-0.10607 -0.48366,-0.29298 -0.60369,-0.56133 -0.12708,-0.26834 -0.14121,-0.54014 -0.0424,-0.81552 0.10583,-0.27525 0.29301,-0.47662 0.56132,-0.6037 0.74843,-0.34599 1.53571,-0.51896 2.36181,-0.51896 1.55335,0 2.88075,0.54721 3.98223,1.64162 1.10146,1.10144 1.6522,2.42886 1.6522,3.98222 0,1.55336 -0.55074,2.88078 -1.6522,3.98222 -1.10148,1.10148 -2.42888,1.65223 -3.98223,1.65223 -1.5463,0 -2.87018,-0.55075 -3.97165,-1.65223 -1.10146,-1.10144 -1.6522,-2.42886 -1.6522,-3.98222 v -36.0242 z"
           id="path1151"
           inkscape:export-filename="/home/yeison/Development/DunderLab/assets/logo/path20353.png"
           inkscape:export-xdpi="157.256"
           inkscape:export-ydpi="157.256"
           sodipodi:nodetypes="cssssscscccccscssssscc" />
        <path
           style="color:#000000;-inkscape-font-specification:'Geoma Regular Demo';fill:#1a535c;fill-opacity:1;stroke:none;stroke-width:1.81239;stroke-miterlimit:4;stroke-dasharray:none"
           d="m 45.91449,472.84627 v 26.4612 c 0,0.96027 -0.34244,1.78286 -1.02733,2.46772 -0.67783,0.67783 -1.49687,1.01676 -2.45712,1.01676 -0.96732,0 -1.78989,-0.33893 -2.46771,-1.01676 -0.68489,-0.68486 -1.02734,-1.50745 -1.02734,-2.46772 0,-0.96024 0.34245,-1.77927 1.02734,-2.4571 0.67782,-0.6849 1.50039,-1.02734 2.46771,-1.02734 0.50836,0 0.99556,0.10607 1.46156,0.31774 0.26831,0.12711 0.54014,0.14124 0.81551,0.0424 0.28241,-0.10607 0.48366,-0.29298 0.60369,-0.56133 0.12708,-0.26834 0.1412,-0.54014 0.0424,-0.81552 -0.10584,-0.27525 -0.29302,-0.47658 -0.56132,-0.6037 -0.74844,-0.34596 -1.5357,-0.51892 -2.3618,-0.51892 -1.55335,0 -2.88077,0.54717 -3.98223,1.64158 -1.10147,1.10148 -1.6522,2.42889 -1.6522,3.98225 0,1.55334 0.55073,2.88075 1.6522,3.98223 1.10146,1.10147 2.42888,1.65219 3.98223,1.65219 1.54628,0 2.87017,-0.55072 3.97164,-1.65219 1.10146,-1.10148 1.65219,-2.42889 1.65219,-3.98223 v -26.4612 z"
           id="path1153"
           inkscape:export-filename="/home/yeison/Development/DunderLab/assets/logo/path20353.png"
           inkscape:export-xdpi="157.256"
           inkscape:export-ydpi="157.256"
           sodipodi:nodetypes="cssssscscccccscssssscc" />
        <path
           style="color:#000000;font-size:10.5833px;font-family:Comfortaa;-inkscape-font-specification:'Geoma Regular Demo';fill:#1a535c;fill-opacity:1;stroke:none;stroke-width:1.81239;stroke-miterlimit:4;stroke-dasharray:none"
           d="M 24.82629,474.57511 V 518.192 c 0,0.95243 -0.33965,1.76831 -1.01896,2.44762 -0.6723,0.6723 -1.48466,1.00845 -2.4371,1.00845 -0.95943,0 -1.77529,-0.33615 -2.4476,-1.00845 -0.67931,-0.67931 -1.01896,-1.49519 -1.01896,-2.44762 0,-0.95242 0.33965,-1.76479 1.01896,-2.4371 0.67231,-0.67929 1.48817,-1.01896 2.4476,-1.01896 0.50424,0 0.98746,0.10511 1.44966,0.31515 0.26612,0.12603 0.53575,0.14006 0.80887,0.042 0.28013,-0.10511 0.47972,-0.29061 0.59877,-0.55674 0.12603,-0.26612 0.14006,-0.53575 0.042,-0.80887 -0.105,-0.27312 -0.29061,-0.47273 -0.55674,-0.59878 -0.74235,-0.34316 -1.5232,-0.51473 -2.34257,-0.51473 -1.54069,0 -2.85729,0.54274 -3.94978,1.62824 -1.09249,1.09248 -1.63874,2.40909 -1.63874,3.94978 0,1.54069 0.54625,2.8573 1.63874,3.94978 1.09249,1.09249 2.40909,1.63874 3.94978,1.63874 1.5337,0 2.84679,-0.54625 3.93928,-1.63874 1.0925,-1.09248 1.63874,-2.40909 1.63874,-3.94978 V 474.5751 Z"
           id="path1155"
           inkscape:export-filename="/home/yeison/Development/DunderLab/assets/logo/path20353.png"
           inkscape:export-xdpi="157.256"
           inkscape:export-ydpi="157.256"
           sodipodi:nodetypes="cssssscscccccscssssscc" />
        <path
           style="color:#000000;fill:#1a535c;fill-opacity:1"
           d="m -0.82736,466.24168 c 0,0 -1.07591,1.83501 -1.63672,3.89648 -0.2804,1.03073 -0.46392,2.13625 -0.19922,3.22461 0.2647,1.08836 1.18853,2.11718 2.53321,2.41016 2.28285,0.49737 3.83138,-0.16647 4.82031,-0.85547 0.98893,-0.689 1.38816,-1.16406 2.45312,-1.16407 1.17579,10e-6 2.00674,0.40322 3.05274,0.91407 1.04599,0.51084 2.30559,1.13086 3.99023,1.13086 1.68464,0 2.94619,-0.62002 3.99219,-1.13086 1.04599,-0.51085 1.87695,-0.91407 3.05273,-0.91407 1.17578,10e-6 2.00674,0.40322 3.05274,0.91407 1.04599,0.51084 2.30755,1.13086 3.99219,1.13086 1.68464,0 2.94423,-0.62002 3.99023,-1.13086 1.046,-0.51085 1.8789,-0.91407 3.05469,-0.91407 1.17578,10e-6 2.00674,0.40322 3.05273,0.91407 1.04599,0.51084 2.3056,1.13086 3.99024,1.13086 1.68464,0 2.94619,-0.62002 3.99218,-1.13086 1.046,-0.51085 1.87695,-0.91406 3.05274,-0.91407 1.06496,0 1.46419,0.47507 2.45312,1.16407 0.98894,0.689 2.5355,1.35284 4.81836,0.85547 1.34467,-0.29298 2.27046,-1.3218 2.53516,-2.41016 0.2647,-1.08836 0.0812,-2.19388 -0.19922,-3.22461 -0.56081,-2.06147 -1.63867,-3.89648 -1.63867,-3.89648 l -1.84961,1.06836 c 0,0 0.96531,1.69604 1.42578,3.38867 0.23023,0.84631 0.30382,1.67384 0.18555,2.16015 -0.11828,0.48631 -0.2162,0.67413 -0.91407,0.82618 -1.80222,0.39265 -2.34569,0.0357 -3.14257,-0.51954 -0.79689,-0.5552 -1.87838,-1.54882 -3.67383,-1.54882 -1.68464,0 -2.94424,0.62001 -3.99024,1.13086 -1.04599,0.51084 -1.8789,0.91406 -3.05468,0.91406 -1.17578,0 -2.00675,-0.40322 -3.05274,-0.91406 -1.04599,-0.51085 -2.3056,-1.13086 -3.99023,-1.13086 -1.68464,0 -2.94619,0.62001 -3.99219,1.13086 -1.046,0.51084 -1.87695,0.91406 -3.05273,0.91406 -1.17578,0 -2.00674,-0.40322 -3.05274,-0.91406 -1.04599,-0.51085 -2.30755,-1.13086 -3.99219,-1.13086 -1.68464,0 -2.94424,0.62001 -3.99023,1.13086 -1.046,0.51084 -1.87891,0.91406 -3.05469,0.91406 -1.17579,0 -2.00674,-0.40322 -3.05273,-0.91406 -1.046,-0.51085 -2.3056,-1.13086 -3.99024,-1.13086 -1.79545,0 -2.87694,0.99362 -3.67383,1.54882 -0.79688,0.55521 -1.3423,0.91219 -3.14453,0.51954 -0.69787,-0.15205 -0.79383,-0.33987 -0.91211,-0.82618 -0.11827,-0.48631 -0.0466,-1.31384 0.1836,-2.16015 0.46046,-1.69263 1.42773,-3.38867 1.42773,-3.38867 z"
           id="path1157" />
        <path
           style="color:#000000;-inkscape-font-specification:Comfortaa;fill:#1a535c;fill-opacity:1;stroke:none"
           d="m 28.27616,432.18699 c -11.73409,0 -19.5772,5.0165 -24.8379,11.55859 -5.26069,6.54209 -8.03575,14.56627 -10.04687,20.75586 -0.50379,1.5505 -0.84575,2.65764 -1.04688,3.47266 -0.10056,0.40751 -0.16728,0.73925 -0.19531,1.05469 -0.028,0.31543 -0.075,0.63831 0.1875,1.08984 0.13124,0.22576 0.38911,0.45582 0.66016,0.55469 0.27105,0.0989 0.51113,0.088 0.6914,0.0586 0.36056,-0.0588 0.57069,-0.18054 0.79883,-0.30664 0.45628,-0.2522 0.93225,-0.58846 1.51367,-0.95117 1.16285,-0.72542 2.68136,-1.5316 4.45508,-1.74024 1.77373,-0.20864 3.82299,0.12855 6.26172,1.90039 1.53607,1.11602 3.29889,1.4861 5.06055,1.41407 1.76166,-0.072 3.5509,-0.55112 5.37695,-1.12891 3.6521,-1.15557 7.47109,-2.70225 11.125,-2.71289 3.60137,-0.0105 7.43763,1.52483 11.10742,2.67969 1.8349,0.57743 3.63255,1.05848 5.39649,1.13672 1.76394,0.0782 3.52773,-0.2807 5.05273,-1.38868 2.43874,-1.77184 4.488,-2.10903 6.26172,-1.90039 1.77373,0.20864 3.29028,1.01482 4.45313,1.74024 0.58142,0.36271 1.05739,0.69897 1.51367,0.95117 0.22814,0.1261 0.43827,0.24785 0.79883,0.30664 0.18027,0.0294 0.42035,0.0403 0.6914,-0.0586 0.27106,-0.0989 0.52892,-0.32893 0.66016,-0.55469 0.26248,-0.45153 0.21553,-0.77441 0.1875,-1.08984 -0.028,-0.31544 -0.0948,-0.64718 -0.19531,-1.05469 -0.20112,-0.81502 -0.54309,-1.92216 -1.04688,-3.47266 C 61.14979,458.31185 58.3767,450.28767 53.116,443.74558 47.8553,437.20349 40.01024,432.18699 28.27616,432.18699 Z m 0,2.13672 c 11.13502,0 18.22027,4.59963 23.17382,10.75976 4.95356,6.16013 7.67854,13.92525 9.67774,20.07813 0.39831,1.22587 0.6129,1.96969 0.80273,2.65625 -0.10233,-0.0652 -0.13769,-0.0874 -0.24804,-0.15625 -1.26019,-0.78614 -3.07121,-1.78462 -5.33399,-2.05078 -2.26278,-0.26617 -4.95674,0.25272 -7.76758,2.29492 -1.08406,0.78762 -2.26903,1.04594 -3.70117,0.98242 -1.43214,-0.0635 -3.08005,-0.48353 -4.85156,-1.04102 -3.54303,-1.11496 -7.56127,-2.78955 -11.75391,-2.77734 -4.23402,0.0123 -8.24216,1.69825 -11.76367,2.8125 -1.76076,0.55713 -3.39467,0.97295 -4.82031,1.03125 -1.42564,0.0583 -2.61236,-0.20539 -3.7168,-1.00781 -2.81084,-2.0422 -5.5048,-2.56109 -7.76758,-2.29492 -2.26277,0.26616 -4.07575,1.26464 -5.33593,2.05078 -0.11036,0.0688 -0.14571,0.091 -0.24805,0.15625 0.18983,-0.68656 0.40442,-1.43038 0.80273,-2.65625 1.9992,-6.15288 4.72419,-13.918 9.67774,-20.07813 4.95355,-6.16013 12.03881,-10.75976 23.17383,-10.75976 z"
           id="path1159" />
      </g>
      <text
         xml:space="preserve"
         style="font-size:8.71053px;font-family:'Ancizar Sans';-inkscape-font-specification:'Ancizar Sans';text-align:justify;fill:#1a535c;fill-opacity:1;stroke:none;stroke-width:0.617285;stroke-linecap:round;stroke-linejoin:round;stroke-dasharray:none;stroke-opacity:1"
         x="154.76859"
         y="186.84482"
         id="text1165"><tspan
           sodipodi:role="line"
           style="font-style:normal;font-variant:normal;font-weight:300;font-stretch:normal;font-family:Ubuntu;-inkscape-font-specification:'Ubuntu Light';fill:#1a535c;fill-opacity:1;stroke-width:0.617285"
           x="154.76859"
           y="186.84482"
           id="tspan1163">dunderlab</tspan></text>
      <g
         id="g1370"
         transform="matrix(0.26423724,0,0,0.26423724,141.24768,26.658943)" />
    </g>
  </g>
</svg>
