<?xml version="1.0" encoding="UTF-8" standalone="no"?>
<svg
   version="1.1"
   width="3.9679639in"
   height="2.7579207in"
   viewBox="0 0 285.6934 198.57029"
   id="svg22"
   sodipodi:docname="utp_universidad_tecnologica_de_pereira.svg"
   inkscape:version="1.3.2 (091e20ef0f, 2023-11-25, custom)"
   xmlns:inkscape="http://www.inkscape.org/namespaces/inkscape"
   xmlns:sodipodi="http://sodipodi.sourceforge.net/DTD/sodipodi-0.dtd"
   xmlns="http://www.w3.org/2000/svg"
   xmlns:svg="http://www.w3.org/2000/svg">
  <defs
     id="defs22" />
  <sodipodi:namedview
     id="namedview22"
     pagecolor="#ffffff"
     bordercolor="#000000"
     borderopacity="0.25"
     inkscape:showpageshadow="2"
     inkscape:pageopacity="0.0"
     inkscape:pagecheckerboard="0"
     inkscape:deskcolor="#d1d1d1"
     inkscape:document-units="in"
     inkscape:zoom="0.76136364"
     inkscape:cx="174.68657"
     inkscape:cy="346.74627"
     inkscape:window-width="1920"
     inkscape:window-height="1008"
     inkscape:window-x="0"
     inkscape:window-y="0"
     inkscape:window-maximized="1"
     inkscape:current-layer="svg22" />
  <g
     id="Layer1000"
     transform="translate(-165.4531,-135.6225)" />
  <g
     id="Layer1001"
     transform="translate(-165.4531,-135.6225)">
    <g
       id="Layer1002">
      <path
         d="m 379.7118,190.1723 -25.7523,25.6943 h 71.4927 l 25.6943,-25.6943 z"
         style="fill:#eeac16;fill-rule:evenodd"
         id="path12" />
      <path
         d="m 451.1465,162.9151 -25.6943,-25.1696 c 0,26.3946 0,51.7264 0,78.1211 l 25.6943,-25.694 z"
         style="fill:#da6f2d;fill-rule:evenodd"
         id="path13" />
      <path
         d="m 378.5055,137.2206 -26.2295,25.6943 c 32.9571,0 65.9134,0 98.8705,0 L 424.917,137.2206 Z"
         style="fill:#d3152e;fill-rule:evenodd"
         id="path14" />
      <path
         d="m 353.9595,215.8666 25.7523,-25.6943 v 42.5765 l -25.7523,24.8474 z"
         style="fill:#671328;fill-rule:evenodd"
         id="path15" />
      <path
         d="m 291.0996,162.9149 26.5411,-25.6943 v 95.7135 l -26.5411,26.2031 z"
         style="fill:#0280bd;fill-rule:evenodd"
         id="path16" />
      <path
         d="m 317.6407,137.2206 -26.5411,25.6943 h 55.7169 l 25.6942,-25.6943 z"
         style="fill:#01395b;fill-rule:evenodd"
         id="path17" />
      <path
         d="m 231.9943,162.9149 26.5411,-25.6943 v 95.7144 l -26.5411,26.2022 z"
         style="fill:#054b3c;fill-rule:evenodd"
         id="path18" />
      <path
         d="m 190.6769,259.103 -25.2238,-26.3525 c 31.0277,0 62.0546,0 93.0823,0 l -26.5415,26.3867 z"
         style="fill:#69654d;fill-rule:evenodd"
         id="path19" />
      <path
         d="m 258.5354,137.2206 -26.5411,25.6943 h 55.7169 l 25.6942,-25.6943 z"
         style="fill:#02955d;fill-rule:evenodd"
         id="path20" />
      <path
         d="M 190.677,259.103 V 135.6225 l -25.2239,25.5995 v 71.5285 z"
         style="fill:#a8b124;fill-rule:evenodd"
         id="path21" />
    </g>
    <path
       d="m 179.844,289.4929 v -14.5542 h -3.7899 v 14.2038 c 0,2.8344 -0.6688,5.3185 -3.2802,5.3185 -2.6115,0 -3.2803,-2.4841 -3.2803,-5.3185 v -14.2038 h -3.8217 v 14.5542 c 0,4.7452 1.8472,8.5668 7.0382,8.5668 5.1912,0 7.1339,-3.8216 7.1339,-8.5668 z m 4.172,-8.2485 v 16.2421 h 3.5987 v -9.3949 c 0,-2.4523 1.051,-4.2676 2.6433,-4.2676 1.7197,0 1.9745,1.8153 1.9745,3.4714 v 10.1911 h 3.5988 v -10.1911 c 0,-3.344 -0.637,-6.5924 -4.172,-6.5924 -2.0064,0 -3.4713,1.4013 -4.0446,3.121 h -0.0637 v -2.5796 z m 19.9044,-4.7134 c 0,-1.242 -0.8916,-2.2612 -2.1018,-2.2612 -1.2102,0 -2.102,1.0192 -2.102,2.2612 0,1.2739 0.8918,2.2293 2.102,2.2293 1.1783,0 2.1018,-0.9554 2.1018,-2.2293 z m -0.3184,20.9555 v -16.2421 h -3.5669 v 16.2421 z m 15.3822,-16.2421 h -3.6624 l -2.6434,12.4523 h -0.0636 l -2.7389,-12.4523 h -3.7899 l 4.2994,16.2421 h 4.2994 z m 13.5032,9.0446 v -1.3694 c 0,-4.6497 -1.5923,-8.2166 -5.7643,-8.2166 -3.6943,0 -6.2102,3.4714 -6.2102,8.6943 0,5.5096 2.5159,8.6306 6.2739,8.6306 2.6433,0 4.3631,-1.4649 5.2866,-3.6943 l -2.6433,-1.5287 c -0.4777,1.1147 -1.2102,2.102 -2.5159,2.102 -1.8472,0 -2.8344,-2.0701 -2.8663,-4.6179 z m -3.4395,-2.6115 h -4.9681 c 0.0318,-1.5605 0.7643,-4.0764 2.6114,-4.0764 1.6242,0 2.3567,1.6879 2.3567,4.0764 z m 10.3504,-3.312 h -0.0637 v -3.1211 h -3.535 v 16.2421 h 3.6624 v -8.1529 c 0,-2.4841 1.0509,-4.9681 2.93,-4.9681 0.3184,0 0.5413,0.0318 0.7642,0.0955 l 0.1912,-3.6943 c -0.1912,-0.0637 -0.3185,-0.0637 -0.5415,-0.0637 -1.5923,0 -2.8662,1.2739 -3.4076,3.6625 z m 14.9364,-1.7835 c -1.1147,-1.1147 -2.7071,-1.879 -4.6497,-1.879 -2.6433,0 -5.0956,1.8471 -5.0956,5.0001 0,2.9936 1.8153,4.0445 3.4713,4.6178 1.6561,0.6051 2.7389,1.0828 2.7389,2.6114 0,1.3058 -0.7325,2.1975 -1.9108,2.1975 -1.3694,0 -2.3567,-0.7325 -3.1211,-1.6242 l -1.9426,2.293 c 1.2102,1.3695 3.0892,2.2293 5.0955,2.2293 2.707,0 5.223,-1.7197 5.223,-5.3185 0,-2.9618 -1.9745,-4.2357 -3.8535,-4.8726 -1.6561,-0.6051 -2.3886,-0.9873 -2.3886,-2.2611 0,-1.2102 0.8281,-2.0383 1.879,-2.0383 1.1465,0 2.0383,0.5733 2.6434,1.3694 z m 6.8789,-6.051 c 0,-1.242 -0.8916,-2.2612 -2.1018,-2.2612 -1.2102,0 -2.102,1.0192 -2.102,2.2612 0,1.2739 0.8918,2.2293 2.102,2.2293 1.1783,0 2.1018,-0.9554 2.1018,-2.2293 z m -0.3184,20.9555 v -16.2421 h -3.5669 v 16.2421 z m 15.7962,0 V 273.41 h -3.535 v 9.9045 h -0.0956 c -0.4458,-1.4969 -1.7516,-2.6115 -3.535,-2.6115 -3.4395,0 -5.2548,3.5987 -5.2548,8.5032 0,5.0001 1.9108,8.8217 5.2548,8.8217 2.1338,0 3.1529,-1.2739 3.6306,-2.8662 h 0.0637 v 2.3248 z m -3.4077,-8.121 c 0,3.0573 -0.8916,5.5095 -2.7388,5.5095 -1.879,0 -2.6751,-2.4522 -2.6751,-5.5095 0,-3.1211 0.7961,-5.5415 2.6751,-5.5415 1.8153,0 2.7388,2.4204 2.7388,5.5415 z m 14.3313,1.4331 c 0,1.9427 -0.7006,4.3949 -2.6433,4.3949 -0.9872,0 -1.8471,-0.7962 -1.8471,-2.4841 0,-2.3248 1.6879,-2.8344 3.4395,-2.8344 h 1.0509 z m 0.1912,4.2675 v 2.4204 h 2.9936 v -9.6497 c 0,-4.5223 -1.3695,-7.1338 -5.3822,-7.1338 -1.7834,0 -3.7898,0.8598 -4.9682,2.3567 l 1.7198,2.2612 c 0.7006,-0.9236 1.7516,-1.5606 2.9618,-1.5606 1.4331,0 2.3885,0.9236 2.3885,3.0574 v 0.5095 h -0.8917 c -3.0892,0 -6.7198,1.0828 -6.7198,5.6689 0,3.5987 2.2612,4.9045 4.1083,4.9045 2.0382,0 3.2803,-1.0829 3.7261,-2.8345 z m 18.535,2.4204 V 273.41 h -3.535 v 9.9045 h -0.0956 c -0.4458,-1.4969 -1.7516,-2.6115 -3.535,-2.6115 -3.4395,0 -5.2548,3.5987 -5.2548,8.5032 0,5.0001 1.9108,8.8217 5.2548,8.8217 2.1338,0 3.1529,-1.2739 3.6306,-2.8662 h 0.0637 v 2.3248 z m -3.4076,-8.121 c 0,3.0573 -0.8917,5.5095 -2.7389,5.5095 -1.879,0 -2.6751,-2.4522 -2.6751,-5.5095 0,-3.1211 0.7961,-5.5415 2.6751,-5.5415 1.8153,0 2.7389,2.4204 2.7389,5.5415 z m 23.1848,-11.1784 v -3.2484 h -12.2293 v 3.2484 h 4.2356 v 19.2994 h 3.758 v -19.2994 z m 11.9745,12.1019 v -1.3694 c 0,-4.6497 -1.5923,-8.2166 -5.7643,-8.2166 -3.6943,0 -6.2102,3.4714 -6.2102,8.6943 0,5.5096 2.5159,8.6306 6.2739,8.6306 2.6433,0 4.3631,-1.4649 5.2866,-3.6943 l -2.6433,-1.5287 c -0.4777,1.1147 -1.2102,2.102 -2.5159,2.102 -1.8472,0 -2.8344,-2.0701 -2.8663,-4.6179 z m -3.4395,-2.6115 h -4.9681 c 0.0318,-1.5605 0.7643,-4.0764 2.6114,-4.0764 1.6242,0 2.3567,1.6879 2.3567,4.0764 z m 15.6052,8.8536 -1.4969,-2.8025 c -0.4777,0.605 -1.0828,0.9554 -1.9744,0.9554 -1.9109,0 -2.8345,-2.1338 -2.8345,-5.3504 0,-3.2166 0.9554,-5.3822 2.7071,-5.3822 0.8916,0 1.4649,0.3822 1.9426,0.8918 l 1.6242,-2.7071 c -0.7325,-0.7324 -2.0063,-1.4331 -3.7261,-1.4331 -3.9491,0 -6.1147,3.5032 -6.1147,8.6306 0,5.0956 2.0701,8.6943 6.0828,8.6943 1.6243,0 2.8981,-0.5732 3.7899,-1.4968 z m 2.3248,-15.2867 v 16.2421 h 3.5987 v -9.3949 c 0,-2.4523 1.051,-4.2676 2.6434,-4.2676 1.7197,0 1.9745,1.8153 1.9745,3.4714 v 10.1911 h 3.5988 v -10.1911 c 0,-3.344 -0.637,-6.5924 -4.172,-6.5924 -2.0064,0 -3.4714,1.4013 -4.0447,3.121 h -0.0636 v -2.5796 z m 27.5479,8.1529 c 0,-5.1911 -2.3567,-8.6943 -6.2421,-8.6943 -3.9172,0 -6.242,3.5032 -6.242,8.6943 0,5.0956 2.3567,8.6306 6.242,8.6306 3.8854,0 6.2421,-3.535 6.2421,-8.6306 z m -3.5669,-0.0318 c 0,3.0891 -0.7962,5.5095 -2.6752,5.5095 -1.8471,0 -2.6433,-2.4204 -2.6433,-5.5095 0,-3.1211 0.7962,-5.5415 2.6433,-5.5415 1.8472,0 2.6752,2.4204 2.6752,5.5415 z m 10.5733,8.121 V 273.41 h -3.6306 v 24.0765 z m 14.395,-22.8981 h -3.3121 l -2.8663,4.5859 h 2.707 z m 1.465,14.8089 c 0,-5.1911 -2.3568,-8.6943 -6.2421,-8.6943 -3.9172,0 -6.2421,3.5032 -6.2421,8.6943 0,5.0956 2.3567,8.6306 6.2421,8.6306 3.8853,0 6.2421,-3.535 6.2421,-8.6306 z m -3.5669,-0.0318 c 0,3.0891 -0.7962,5.5095 -2.6752,5.5095 -1.8472,0 -2.6433,-2.4204 -2.6433,-5.5095 0,-3.1211 0.7961,-5.5415 2.6433,-5.5415 1.8471,0 2.6752,2.4204 2.6752,5.5415 z m 18.344,7.6752 v -15.7963 h -3.4395 v 2.293 h -0.0955 c -0.5096,-1.6242 -1.5287,-2.8344 -3.5988,-2.8344 -3.3758,0 -5.2548,3.6625 -5.2548,8.6625 0,4.9363 1.7835,8.5351 5.2548,8.5351 1.7516,0 3.0892,-1.1466 3.5669,-2.5797 h 0.0637 v 1.9746 c 0,2.6114 -0.7643,4.6496 -3.1529,4.6496 -1.4968,0 -2.7707,-0.7643 -3.6942,-1.7834 l -1.9427,2.5796 c 1.3057,1.4331 3.5032,2.3885 5.7325,2.3885 4.7452,0 6.5605,-3.2802 6.5605,-8.0891 z m -3.4077,-7.7071 c 0,3.0892 -0.9236,5.5414 -2.707,5.5414 -1.879,0 -2.6751,-2.4522 -2.6751,-5.5414 0,-3.0892 0.7961,-5.5096 2.6751,-5.5096 1.8153,0 2.707,2.4204 2.707,5.5096 z m 11.5924,-12.8026 c 0,-1.242 -0.8917,-2.2612 -2.1019,-2.2612 -1.2102,0 -2.1019,1.0192 -2.1019,2.2612 0,1.2739 0.8917,2.2293 2.1019,2.2293 1.1783,0 2.1019,-0.9554 2.1019,-2.2293 z m -0.3185,20.9555 v -16.2421 h -3.5669 v 16.2421 z m 13.2485,-0.9554 -1.4969,-2.8025 c -0.4777,0.605 -1.0828,0.9554 -1.9744,0.9554 -1.9109,0 -2.8345,-2.1338 -2.8345,-5.3504 0,-3.2166 0.9554,-5.3822 2.7071,-5.3822 0.8916,0 1.4649,0.3822 1.9426,0.8918 l 1.6242,-2.7071 c -0.7325,-0.7324 -2.0063,-1.4331 -3.7261,-1.4331 -3.9491,0 -6.1147,3.5032 -6.1147,8.6306 0,5.0956 2.0701,8.6943 6.0828,8.6943 1.6243,0 2.8981,-0.5732 3.7899,-1.4968 z m 8.8535,-5.7325 c 0,1.9427 -0.7006,4.3949 -2.6433,4.3949 -0.9873,0 -1.8472,-0.7962 -1.8472,-2.4841 0,-2.3248 1.6879,-2.8344 3.4395,-2.8344 h 1.051 z m 0.1911,4.2675 v 2.4204 h 2.9936 v -9.6497 c 0,-4.5223 -1.3694,-7.1338 -5.3822,-7.1338 -1.7834,0 -3.7898,0.8598 -4.9681,2.3567 l 1.7197,2.2612 c 0.7006,-0.9236 1.7516,-1.5606 2.9618,-1.5606 1.4331,0 2.3886,0.9236 2.3886,3.0574 v 0.5095 h -0.8918 c -3.0891,0 -6.7198,1.0828 -6.7198,5.6689 0,3.5987 2.2612,4.9045 4.1084,4.9045 2.0382,0 3.2802,-1.0829 3.7261,-2.8345 z m -186.195,38.5852 v -24.0765 h -3.535 v 9.9045 h -0.0955 c -0.4459,-1.4969 -1.7517,-2.6115 -3.5351,-2.6115 -3.4395,0 -5.2548,3.5987 -5.2548,8.5032 0,5.0001 1.9108,8.8218 5.2548,8.8218 2.1338,0 3.1529,-1.274 3.6306,-2.8663 h 0.0637 v 2.3248 z m -3.4076,-8.121 c 0,3.0573 -0.8917,5.5095 -2.7388,5.5095 -1.8791,0 -2.6752,-2.4522 -2.6752,-5.5095 0,-3.1211 0.7961,-5.5415 2.6752,-5.5415 1.8152,0 2.7388,2.4204 2.7388,5.5415 z m 18.7581,0.9235 v -1.3694 c 0,-4.6497 -1.5924,-8.2166 -5.7644,-8.2166 -3.6943,0 -6.2102,3.4714 -6.2102,8.6943 0,5.5096 2.5159,8.6307 6.2739,8.6307 2.6433,0 4.3631,-1.465 5.2866,-3.6943 l -2.6433,-1.5288 c -0.4777,1.1147 -1.2102,2.102 -2.5159,2.102 -1.8471,0 -2.8344,-2.0701 -2.8663,-4.6179 z m -3.4395,-2.6115 h -4.9682 c 0.0319,-1.5605 0.7644,-4.0764 2.6114,-4.0764 1.6243,0 2.3568,1.6879 2.3568,4.0764 z m 25.637,-6.0828 c 0,-5.0955 -3.4395,-6.656 -6.3695,-6.656 h -6.242 v 22.5478 h 3.7579 v -9.0446 h 2.6752 c 3.1847,0 6.1784,-2.2293 6.1784,-6.8472 z m -3.6306,0.0319 c 0,2.4204 -1.2739,3.6943 -3.0573,3.6943 h -2.1657 V 314.32 h 2.1657 c 1.7834,0 3.0573,1.0829 3.0573,3.4714 z m 16.5287,8.6624 v -1.3694 c 0,-4.6497 -1.5923,-8.2166 -5.7643,-8.2166 -3.6943,0 -6.2102,3.4714 -6.2102,8.6943 0,5.5096 2.5159,8.6307 6.2739,8.6307 2.6433,0 4.3631,-1.465 5.2866,-3.6943 l -2.6433,-1.5288 c -0.4777,1.1147 -1.2102,2.102 -2.5159,2.102 -1.8472,0 -2.8344,-2.0701 -2.8663,-4.6179 z m -3.4395,-2.6115 h -4.9681 c 0.0318,-1.5605 0.7643,-4.0764 2.6114,-4.0764 1.6242,0 2.3567,1.6879 2.3567,4.0764 z m 10.3504,-3.312 h -0.0637 v -3.1211 h -3.535 v 16.2421 h 3.6624 v -8.1529 c 0,-2.4841 1.0509,-4.9681 2.9299,-4.9681 0.3185,0 0.5414,0.0318 0.7643,0.0955 l 0.1912,-3.6943 c -0.1912,-0.0637 -0.3186,-0.0637 -0.5415,-0.0637 -1.5923,0 -2.8662,1.2739 -3.4076,3.6625 z m 16.9427,5.9235 v -1.3694 c 0,-4.6497 -1.5924,-8.2166 -5.7644,-8.2166 -3.6943,0 -6.2102,3.4714 -6.2102,8.6943 0,5.5096 2.5159,8.6307 6.274,8.6307 2.6433,0 4.363,-1.465 5.2866,-3.6943 l -2.6433,-1.5288 c -0.4777,1.1147 -1.2102,2.102 -2.5159,2.102 -1.8472,0 -2.8345,-2.0701 -2.8663,-4.6179 z m -3.4395,-2.6115 h -4.9682 c 0.0319,-1.5605 0.7644,-4.0764 2.6115,-4.0764 1.6242,0 2.3567,1.6879 2.3567,4.0764 z m 10.5733,-11.1465 c 0,-1.242 -0.8917,-2.2612 -2.1019,-2.2612 -1.2102,0 -2.1019,1.0192 -2.1019,2.2612 0,1.2739 0.8917,2.2293 2.1019,2.2293 1.1783,0 2.1019,-0.9554 2.1019,-2.2293 z m -0.3185,20.9555 v -16.2421 h -3.5669 v 16.2421 z m 7.9936,-13.121 h -0.0636 v -3.1211 h -3.5351 v 16.2421 h 3.6625 v -8.1529 c 0,-2.4841 1.0509,-4.9681 2.9299,-4.9681 0.3185,0 0.5414,0.0318 0.7643,0.0955 l 0.1911,-3.6943 c -0.1911,-0.0637 -0.3185,-0.0637 -0.5414,-0.0637 -1.5924,0 -2.8662,1.2739 -3.4077,3.6625 z m 12.516,6.4331 c 0,1.9427 -0.7006,4.3949 -2.6433,4.3949 -0.9873,0 -1.8472,-0.7962 -1.8472,-2.4841 0,-2.3248 1.6879,-2.8344 3.4396,-2.8344 h 1.0509 z m 0.1911,4.2675 v 2.4204 h 2.9936 v -9.6497 c 0,-4.5223 -1.3694,-7.1338 -5.3822,-7.1338 -1.7834,0 -3.7898,0.8599 -4.9681,2.3567 l 1.7197,2.2612 c 0.7007,-0.9236 1.7517,-1.5606 2.9618,-1.5606 1.4332,0 2.3886,0.9236 2.3886,3.0574 v 0.5095 h -0.8918 c -3.0891,0 -6.7198,1.0828 -6.7198,5.6689 0,3.5987 2.2612,4.9045 4.1084,4.9045 2.0382,0 3.2802,-1.0829 3.7261,-2.8345 z"
       style="fill:#1b1918;fill-rule:evenodd"
       id="path22" />
  </g>
</svg>
