<?xml version="1.0" encoding="UTF-8" standalone="no"?>
<svg
   id="Layer_1"
   data-name="Layer 1"
   viewBox="0 0 24 24"
   width="512"
   height="512"
   version="1.1"
   sodipodi:docname="brain.svg"
   inkscape:version="1.3.2 (091e20ef0f, 2023-11-25, custom)"
   xmlns:inkscape="http://www.inkscape.org/namespaces/inkscape"
   xmlns:sodipodi="http://sodipodi.sourceforge.net/DTD/sodipodi-0.dtd"
   xmlns="http://www.w3.org/2000/svg"
   xmlns:svg="http://www.w3.org/2000/svg">
  <defs
     id="defs1" />
  <sodipodi:namedview
     id="namedview1"
     pagecolor="#ffffff"
     bordercolor="#000000"
     borderopacity="0.25"
     inkscape:showpageshadow="2"
     inkscape:pageopacity="0.0"
     inkscape:pagecheckerboard="0"
     inkscape:deskcolor="#d1d1d1"
     inkscape:zoom="1.5703125"
     inkscape:cx="256"
     inkscape:cy="256"
     inkscape:window-width="1920"
     inkscape:window-height="1008"
     inkscape:window-x="0"
     inkscape:window-y="0"
     inkscape:window-maximized="1"
     inkscape:current-layer="Layer_1" />
  <path
     d="M24,10.95c0-1.56-.8-3.02-2.11-3.89,0-.1,.02-.19,.02-.29,0-1.85-1.38-3.38-3.17-3.61-.23-1.78-1.76-3.17-3.61-3.17-1.33,0-2.5,.72-3.14,1.8-.63-1.08-1.8-1.8-3.14-1.8-1.85,0-3.38,1.38-3.61,3.17-1.78,.23-3.17,1.76-3.17,3.61,0,.1,0,.2,.02,.29-1.31,.87-2.11,2.33-2.11,3.89,0,.94,.28,1.83,.82,2.61-.54,.78-.82,1.68-.82,2.61,0,1.64,.87,3.16,2.29,4,.62,2.26,2.65,3.82,5.01,3.82,2.07,0,3.87-1.22,4.7-2.98,.84,1.76,2.63,2.98,4.7,2.98,2.36,0,4.38-1.56,5.01-3.82,1.42-.85,2.29-2.36,2.29-4,0-.93-.28-1.83-.82-2.61,.54-.78,.82-1.68,.82-2.61ZM7.3,23c-1.96,0-3.64-1.34-4.09-3.26-.03-.14-.12-.26-.25-.33-1.21-.65-1.96-1.88-1.96-3.23,0-.83,.29-1.63,.83-2.3,.15-.18,.15-.44,0-.63-.54-.67-.83-1.47-.83-2.3,0-1.32,.72-2.54,1.89-3.2,.19-.1,.28-.31,.25-.52-.03-.15-.05-.3-.05-.46,0-1.45,1.18-2.64,2.64-2.64,.28,0,.5-.22,.5-.5,0-1.45,1.18-2.64,2.64-2.64s2.64,1.18,2.64,2.64v15.16c0,2.32-1.89,4.2-4.2,4.2Zm14.87-9.12c.54,.67,.83,1.47,.83,2.3,0,1.35-.75,2.58-1.96,3.23-.13,.07-.22,.19-.25,.33-.44,1.92-2.12,3.26-4.09,3.26-2.32,0-4.2-1.89-4.2-4.2V3.64c0-1.45,1.18-2.64,2.64-2.64s2.64,1.18,2.64,2.64c0,.28,.22,.5,.5,.5,1.45,0,2.64,1.18,2.64,2.64,0,.16-.02,.31-.05,.46-.04,.21,.06,.42,.25,.52,1.17,.66,1.89,1.88,1.89,3.2,0,.83-.29,1.63-.83,2.3-.15,.18-.15,.44,0,.63Z"
     id="path1"
     style="fill:#4ecdc4;fill-opacity:1" />
</svg>
