<?xml version="1.0" encoding="UTF-8" standalone="no"?>
<svg
   id="Layer_1"
   data-name="Layer 1"
   viewBox="0 0 24 24"
   width="512"
   height="512"
   version="1.1"
   sodipodi:docname="microchip.svg"
   inkscape:version="1.3.2 (091e20ef0f, 2023-11-25, custom)"
   xmlns:inkscape="http://www.inkscape.org/namespaces/inkscape"
   xmlns:sodipodi="http://sodipodi.sourceforge.net/DTD/sodipodi-0.dtd"
   xmlns="http://www.w3.org/2000/svg"
   xmlns:svg="http://www.w3.org/2000/svg">
  <defs
     id="defs1" />
  <sodipodi:namedview
     id="namedview1"
     pagecolor="#ffffff"
     bordercolor="#000000"
     borderopacity="0.25"
     inkscape:showpageshadow="2"
     inkscape:pageopacity="0.0"
     inkscape:pagecheckerboard="0"
     inkscape:deskcolor="#d1d1d1"
     inkscape:zoom="1.5703125"
     inkscape:cx="256"
     inkscape:cy="256"
     inkscape:window-width="1920"
     inkscape:window-height="1008"
     inkscape:window-x="0"
     inkscape:window-y="0"
     inkscape:window-maximized="1"
     inkscape:current-layer="Layer_1" />
  <path
     d="M16.5,7H7.5c-.28,0-.5,.22-.5,.5v9c0,.28,.22,.5,.5,.5h9c.28,0,.5-.22,.5-.5V7.5c0-.28-.22-.5-.5-.5Zm-.5,9H8V8h8v8Zm7.5-5c.28,0,.5-.22,.5-.5s-.22-.5-.5-.5h-1.5v-2h1.5c.28,0,.5-.22,.5-.5s-.22-.5-.5-.5h-1.5v-.5c0-2.48-2.02-4.5-4.5-4.5h-.5V.5c0-.28-.22-.5-.5-.5s-.5,.22-.5,.5v1.5h-2V.5c0-.28-.22-.5-.5-.5s-.5,.22-.5,.5v1.5h-2V.5c0-.28-.22-.5-.5-.5s-.5,.22-.5,.5v1.5h-2V.5c0-.28-.22-.5-.5-.5s-.5,.22-.5,.5v1.5h-.5c-2.48,0-4.5,2.02-4.5,4.5v.5H.5c-.28,0-.5,.22-.5,.5s.22,.5,.5,.5h1.5v2H.5c-.28,0-.5,.22-.5,.5s.22,.5,.5,.5h1.5v2H.5c-.28,0-.5,.22-.5,.5s.22,.5,.5,.5h1.5v2H.5c-.28,0-.5,.22-.5,.5s.22,.5,.5,.5h1.5v.5c0,2.48,2.02,4.5,4.5,4.5h.5v1.5c0,.28,.22,.5,.5,.5s.5-.22,.5-.5v-1.5h2v1.5c0,.28,.22,.5,.5,.5s.5-.22,.5-.5v-1.5h2v1.5c0,.28,.22,.5,.5,.5s.5-.22,.5-.5v-1.5h2v1.5c0,.28,.22,.5,.5,.5s.5-.22,.5-.5v-1.5h.5c2.48,0,4.5-2.02,4.5-4.5v-.5h1.5c.28,0,.5-.22,.5-.5s-.22-.5-.5-.5h-1.5v-2h1.5c.28,0,.5-.22,.5-.5s-.22-.5-.5-.5h-1.5v-2h1.5Zm-2.5,6.5c0,1.93-1.57,3.5-3.5,3.5H6.5c-1.93,0-3.5-1.57-3.5-3.5V6.5c0-1.93,1.57-3.5,3.5-3.5h11c1.93,0,3.5,1.57,3.5,3.5v11Z"
     id="path1"
     style="fill:#4ecdc4;fill-opacity:1" />
</svg>
