<?xml version="1.0" encoding="UTF-8" standalone="no"?>
<svg
   id="Layer_1"
   data-name="Layer 1"
   viewBox="0 0 24 24"
   width="512"
   height="512"
   version="1.1"
   sodipodi:docname="tally-4.svg"
   inkscape:version="1.3.2 (091e20ef0f, 2023-11-25, custom)"
   xmlns:inkscape="http://www.inkscape.org/namespaces/inkscape"
   xmlns:sodipodi="http://sodipodi.sourceforge.net/DTD/sodipodi-0.dtd"
   xmlns="http://www.w3.org/2000/svg"
   xmlns:svg="http://www.w3.org/2000/svg">
  <defs
     id="defs1" />
  <sodipodi:namedview
     id="namedview1"
     pagecolor="#ffffff"
     bordercolor="#000000"
     borderopacity="0.25"
     inkscape:showpageshadow="2"
     inkscape:pageopacity="0.0"
     inkscape:pagecheckerboard="0"
     inkscape:deskcolor="#d1d1d1"
     inkscape:zoom="1.5703125"
     inkscape:cx="256"
     inkscape:cy="256"
     inkscape:window-width="1920"
     inkscape:window-height="1008"
     inkscape:window-x="0"
     inkscape:window-y="0"
     inkscape:window-maximized="1"
     inkscape:current-layer="Layer_1" />
  <path
     d="m 0.5,22 h 23 c 0.276,0 0.5,0.224 0.5,0.5 0,0.276 -0.224,0.5 -0.5,0.5 H 0.5 C 0.224,23 0,22.776 0,22.5 0,22.224 0.224,22 0.5,22 Z M 0,1.5 C 0,1.776 0.224,2 0.5,2 h 23 C 23.776,2 24,1.776 24,1.5 24,1.224 23.776,1 23.5,1 H 0.5 C 0.224,1 0,1.224 0,1.5 Z m 0,7 C 0,8.776 0.224,9 0.5,9 h 23 C 23.776,9 24,8.776 24,8.5 24,8.224 23.776,8 23.5,8 H 0.5 C 0.224,8 0,8.224 0,8.5 Z m 0,7 C 0,15.776 0.224,16 0.5,16 h 23 C 23.776,16 24,15.776 24,15.5 24,15.224 23.776,15 23.5,15 H 0.5 C 0.224,15 0,15.224 0,15.5 Z"
     id="path1"
     style="fill:#4ecdc4;fill-opacity:1" />
</svg>
