<?xml version="1.0" encoding="UTF-8" standalone="no"?>
<svg
   id="Layer_1"
   data-name="Layer 1"
   viewBox="0 0 24 24"
   version="1.1"
   sodipodi:docname="cloud-code.svg"
   inkscape:version="1.3.2 (091e20ef0f, 2023-11-25, custom)"
   xmlns:inkscape="http://www.inkscape.org/namespaces/inkscape"
   xmlns:sodipodi="http://sodipodi.sourceforge.net/DTD/sodipodi-0.dtd"
   xmlns="http://www.w3.org/2000/svg"
   xmlns:svg="http://www.w3.org/2000/svg">
  <defs
     id="defs1" />
  <sodipodi:namedview
     id="namedview1"
     pagecolor="#ffffff"
     bordercolor="#000000"
     borderopacity="0.25"
     inkscape:showpageshadow="2"
     inkscape:pageopacity="0.0"
     inkscape:pagecheckerboard="0"
     inkscape:deskcolor="#d1d1d1"
     inkscape:zoom="33.5"
     inkscape:cx="12"
     inkscape:cy="12"
     inkscape:window-width="1920"
     inkscape:window-height="1008"
     inkscape:window-x="0"
     inkscape:window-y="0"
     inkscape:window-maximized="1"
     inkscape:current-layer="Layer_1" />
  <path
     d="m9.849,17.142c.198.192.202.509.01.707-.098.101-.228.151-.358.151-.125,0-.251-.047-.349-.142l-2.561-2.489c-.383-.382-.591-.884-.591-1.419s.208-1.036.586-1.414l2.573-2.401c.203-.188.518-.178.707.024.188.201.177.518-.024.706l-2.561,2.39c-.177.178-.281.429-.281.695s.104.519.292.707l2.556,2.484Zm14.151-2.642c0,4.136-3.364,7.5-7.5,7.5H5.5c-3.033,0-5.5-2.468-5.5-5.5,0-1.803.87-3.451,2.345-4.483-.229-.743-.345-1.504-.345-2.267,0-4.273,3.477-7.75,7.75-7.75,3.249,0,6.12,2.004,7.252,5.022,3.89.262,6.998,3.545,6.998,7.478Zm-1,0c0-3.509-2.857-6.422-6.368-6.493-.213-.005-.399-.143-.465-.346-.907-2.788-3.485-4.661-6.417-4.661-3.722,0-6.75,3.028-6.75,6.75,0,.776.139,1.552.412,2.304.082.225-.007.477-.212.6-1.377.826-2.2,2.265-2.2,3.847,0,2.481,2.019,4.5,4.5,4.5h11c3.584,0,6.5-2.916,6.5-6.5Zm-8.159-4.365c-.203-.188-.518-.177-.707.024-.188.201-.177.518.024.706l2.548,2.378c.39.391.39,1.024.005,1.41l-2.561,2.488c-.198.192-.203.509-.01.707.098.101.228.151.358.151.125,0,.251-.047.349-.142l2.565-2.493c.78-.78.78-2.049-.012-2.841l-2.561-2.39Z"
     id="path1"
     style="fill:#4ecdc4;fill-opacity:1" />
</svg>
