<?xml version="1.0" encoding="UTF-8" standalone="no"?>
<svg
   id="Layer_1"
   data-name="Layer 1"
   viewBox="0 0 24 24"
   width="512"
   height="512"
   version="1.1"
   sodipodi:docname="display-code.svg"
   inkscape:version="1.3.2 (091e20ef0f, 2023-11-25, custom)"
   xmlns:inkscape="http://www.inkscape.org/namespaces/inkscape"
   xmlns:sodipodi="http://sodipodi.sourceforge.net/DTD/sodipodi-0.dtd"
   xmlns="http://www.w3.org/2000/svg"
   xmlns:svg="http://www.w3.org/2000/svg">
  <defs
     id="defs1" />
  <sodipodi:namedview
     id="namedview1"
     pagecolor="#ffffff"
     bordercolor="#000000"
     borderopacity="0.25"
     inkscape:showpageshadow="2"
     inkscape:pageopacity="0.0"
     inkscape:pagecheckerboard="0"
     inkscape:deskcolor="#d1d1d1"
     inkscape:zoom="1.5703125"
     inkscape:cx="256"
     inkscape:cy="256"
     inkscape:window-width="1920"
     inkscape:window-height="1008"
     inkscape:window-x="0"
     inkscape:window-y="0"
     inkscape:window-maximized="1"
     inkscape:current-layer="Layer_1" />
  <path
     d="M19.5,1H4.5C2.019,1,0,3.019,0,5.5V14.5c0,2.481,2.019,4.5,4.5,4.5h7v3H7c-.276,0-.5,.224-.5,.5s.224,.5,.5,.5h10c.276,0,.5-.224,.5-.5s-.224-.5-.5-.5h-4.5v-3h7c2.481,0,4.5-2.019,4.5-4.5V5.5c0-2.481-2.019-4.5-4.5-4.5Zm3.5,13.5c0,1.93-1.57,3.5-3.5,3.5H4.5c-1.93,0-3.5-1.57-3.5-3.5V5.5c0-1.93,1.57-3.5,3.5-3.5h15c1.93,0,3.5,1.57,3.5,3.5V14.5Zm-4.732-6.266c.975,.975,.975,2.562,0,3.536l-3.083,3.083c-.098,.098-.226,.146-.354,.146s-.256-.049-.354-.146c-.195-.195-.195-.512,0-.707l3.083-3.083c.585-.585,.585-1.537,0-2.122l-3.088-3.088c-.195-.195-.195-.512,0-.707s.512-.195,.707,0l3.088,3.088Zm-11.828,.707c-.585,.585-.585,1.537,0,2.122l3.083,3.083c.195,.195,.195,.512,0,.707-.098,.098-.226,.146-.354,.146s-.256-.049-.354-.146l-3.083-3.083c-.975-.975-.975-2.562,0-3.536l3.088-3.088c.195-.195,.512-.195,.707,0s.195,.512,0,.707l-3.088,3.088Z"
     id="path1"
     style="fill:#4ecdc4;fill-opacity:1" />
</svg>
